<?xml version="1.0" encoding="UTF-8" standalone="no"?>
<!-- Created with Inkscape (http://www.inkscape.org/) -->

<svg
   xmlns:dc="http://purl.org/dc/elements/1.1/"
   xmlns:cc="http://creativecommons.org/ns#"
   xmlns:rdf="http://www.w3.org/1999/02/22-rdf-syntax-ns#"
   xmlns:svg="http://www.w3.org/2000/svg"
   xmlns="http://www.w3.org/2000/svg"
   xmlns:sodipodi="http://sodipodi.sourceforge.net/DTD/sodipodi-0.dtd"
   xmlns:inkscape="http://www.inkscape.org/namespaces/inkscape"
   inkscape:version="0.92.4 (5da689c313, 2019-01-14)"
   sodipodi:docname="gear01.svg"
   id="svg8"
   version="1.1"
   viewBox="0 0 12.7 12.700013"
   height="48"
   width="48">
  <defs
     id="defs2">
    <inkscape:path-effect
       effect="gears"
       id="path-effect837"
       is_visible="true"
       teeth="20"
       phi="15"
       min_radius="5" />
    <inkscape:path-effect
       effect="gears"
       id="path-effect4646"
       is_visible="true"
       teeth="20"
       phi="15"
       min_radius="5" />
    <inkscape:path-effect
       effect="gears"
       id="path-effect3727"
       is_visible="true"
       teeth="25"
       phi="20"
       min_radius="5" />
    <inkscape:path-effect
       effect="gears"
       id="path-effect3721"
       is_visible="true"
       teeth="10"
       phi="5"
       min_radius="5" />
    <inkscape:path-effect
       effect="gears"
       id="path-effect3719"
       is_visible="true"
       teeth="10"
       phi="5"
       min_radius="5" />
    <inkscape:path-effect
       effect="gears"
       id="path-effect3727-4"
       is_visible="true"
       teeth="12"
       phi="20"
       min_radius="5" />
    <inkscape:path-effect
       effect="gears"
       id="path-effect3727-1"
       is_visible="true"
       teeth="30"
       phi="20"
       min_radius="5" />
  </defs>
  <sodipodi:namedview
     id="base"
     pagecolor="#ffffff"
     bordercolor="#666666"
     borderopacity="1.0"
     inkscape:pageopacity="0.0"
     inkscape:pageshadow="2"
     inkscape:zoom="9.28"
     inkscape:cx="27.453734"
     inkscape:cy="23.25309"
     inkscape:document-units="mm"
     inkscape:current-layer="layer1"
     showgrid="true"
     inkscape:window-width="1920"
     inkscape:window-height="1017"
     inkscape:window-x="1912"
     inkscape:window-y="-8"
     inkscape:window-maximized="1"
     inkscape:snap-global="true"
     units="px"
     showguides="true"
     inkscape:guide-bbox="true">
    <inkscape:grid
       type="xygrid"
       id="grid3713"
       units="mm"
       spacingx="1"
       spacingy="1" />
  </sodipodi:namedview>
  <metadata
     id="metadata5">
    <rdf:RDF>
      <cc:Work
         rdf:about="">
        <dc:format>image/svg+xml</dc:format>
        <dc:type
           rdf:resource="http://purl.org/dc/dcmitype/StillImage" />
        <dc:title></dc:title>
      </cc:Work>
    </rdf:RDF>
  </metadata>
  <g
     inkscape:label="レイヤー 1"
     inkscape:groupmode="layer"
     id="layer1"
     transform="translate(0,-284.29985)">
    <path
       style="fill:none;stroke:#000000;stroke-width:0.1000001;stroke-linecap:butt;stroke-linejoin:miter;stroke-miterlimit:4;stroke-dasharray:none;stroke-opacity:1"
       d="m 5.9415539,285.8376 c 0,0 -0.0205,-0.24757 0.1956076,-0.68357 0.1418509,-0.005 0.2839206,-0.005 0.4257902,0 0.2161157,0.436 0.1956428,0.68356 0.1956428,0.68356 l -0.027862,0.32846 c 0.21649,0.0184 0.4313591,0.0524 0.6429294,0.10183 l 0.074962,-0.321 c 0,0 0.057004,-0.24178 0.3972964,-0.58964 0.1366259,0.0386 0.2717045,0.0825 0.4049405,0.13157 0.070802,0.48144 -0.025165,0.71055 -0.025165,0.71055 l -0.1280323,0.30376 c 0.2002083,0.0844 0.3940426,0.18314 0.5799879,0.29551 l 0.170519,-0.28209 c 0,0 0.1289219,-0.21233 0.5600424,-0.43805 0.118005,0.0789 0.232918,0.16243 0.344463,0.25027 -0.08144,0.47975 -0.243539,0.66799 -0.243539,0.66799 l -0.2156048,0.24934 c 0.1643458,0.14213 0.3181778,0.29596 0.4602808,0.46029 l 0.2493262,-0.21563 c 0,0 0.188233,-0.16209 0.668003,-0.24351 0.08783,0.11155 0.171327,0.22646 0.250264,0.34447 -0.225669,0.43112 -0.438007,0.56006 -0.438007,0.56006 l -0.282122,0.17049 c 0.112373,0.18593 0.211138,0.37977 0.295527,0.57999 l 0.30376,-0.128 c 0,0 0.229121,-0.096 0.710556,-0.0252 0.04903,0.13322 0.09296,0.26831 0.131577,0.40494 -0.347884,0.34026 -0.589673,0.39727 -0.589673,0.39727 l -0.320978,0.075 c 0.04941,0.21156 0.08345,0.42644 0.101821,0.64292 l 0.328447,-0.0279 c 0,0 0.247571,-0.0205 0.683559,0.19564 0.0055,0.14188 0.0055,0.28392 6e-6,0.42578 -0.435979,0.21614 -0.68357,0.19564 -0.68357,0.19564 l -0.328435,-0.0279 c -0.01839,0.21648 -0.05236,0.43138 -0.101846,0.64292 l 0.320995,0.075 c 0,0 0.241777,0.057 0.589646,0.3973 -0.03908,0.13645 -0.08298,0.27156 -0.131564,0.40494 -0.48145,0.0708 -0.710561,-0.0252 -0.710561,-0.0252 l -0.303759,-0.12801 c -0.0844,0.2002 -0.183131,0.39405 -0.29552,0.57999 l 0.282101,0.17049 c 0,0 0.212314,0.12896 0.43802,0.56007 -0.07893,0.11802 -0.162432,0.23294 -0.250268,0.34447 -0.479747,-0.0814 -0.667995,-0.24351 -0.667995,-0.24351 l -0.2493422,-0.21562 c -0.142138,0.16433 -0.295915,0.31821 -0.4602772,0.46029 l 0.2156072,0.24933 c 0,0 0.162071,0.18825 0.243506,0.66799 -0.111892,0.0874 -0.226159,0.17174 -0.344467,0.25028 -0.4311056,-0.2257 -0.5600595,-0.43801 -0.5600595,-0.43801 l -0.1704499,-0.2821 c -0.1859525,0.11236 -0.3797769,0.21115 -0.5799795,0.29553 l 0.1280084,0.30376 c 0,0 0.095969,0.22911 0.02517,0.71055 -0.1332412,0.0491 -0.2683357,0.093 -0.4049583,0.13157 -0.3402535,-0.34788 -0.3972929,-0.58965 -0.3972929,-0.58965 l -0.07497,-0.32098 c -0.2115785,0.0494 -0.4264343,0.0835 -0.6429241,0.10183 l 0.027879,0.32844 c 0,0 0.0205,0.24757 -0.1956094,0.68358 -0.1418499,0.005 -0.2839283,0.005 -0.4257978,-10e-6 -0.2160973,-0.43599 -0.1956431,-0.68356 -0.1956431,-0.68356 l 0.027863,-0.32846 c -0.2164811,-0.0184 -0.4313594,-0.0524 -0.6429217,-0.10182 l -0.074962,0.32099 c 0,0 -0.057002,0.24178 -0.3972948,0.58964 -0.136629,-0.0386 -0.2717045,-0.0825 -0.4049403,-0.13157 -0.070802,-0.48144 0.025155,-0.71056 0.025155,-0.71056 l 0.1280302,-0.30375 c -0.2002083,-0.0844 -0.394042,-0.18314 -0.5799859,-0.29552 l -0.1705211,0.28211 c 0,0 -0.1289215,0.21232 -0.5601004,0.43796 -0.1180044,-0.0789 -0.232917,-0.16243 -0.3444623,-0.25027 0.081435,-0.47974 0.2435392,-0.66799 0.2435392,-0.66799 l 0.2155947,-0.24934 c -0.1643355,-0.14206 -0.3181658,-0.2959 -0.4602885,-0.46024 l -0.2492964,0.21564 c 0,0 -0.188234,0.1621 -0.6679951,0.24351 -0.087839,-0.11154 -0.1713346,-0.22646 -0.2502718,-0.34447 0.225669,-0.43112 0.4380165,-0.56006 0.4380165,-0.56006 l 0.2821201,-0.17048 C 2.38642,292.7915 2.2876545,292.59766 2.2032835,292.39745 l -0.3037695,0.12799 c 0,0 -0.2291114,0.096 -0.710563,0.0252 -0.049033,-0.13322 -0.09296,-0.2683 -0.1315675,-0.40494 0.3478835,-0.34026 0.5896631,-0.39727 0.5896631,-0.39727 l 0.3209875,-0.075 C 1.9186101,291.46187 1.8845861,291.247 1.866204,291.03051 l -0.3284955,0.0279 c 0,0 -0.2475609,0.0205 -0.68355996,-0.19564 -0.00553,-0.14188 -0.00553,-0.28392 2.9e-6,-0.42578 0.43597906,-0.21614 0.68356186,-0.19564 0.68356186,-0.19564 l 0.3284451,0.0279 c 0.018395,-0.21648 0.052365,-0.43138 0.101827,-0.64292 l -0.3209853,-0.075 c 0,0 -0.2417692,-0.057 -0.5896465,-0.3973 0.03908,-0.13646 0.082977,-0.27156 0.1315737,-0.40494 0.4814988,-0.0707 0.7106167,0.0253 0.7106167,0.0253 l 0.303761,0.12801 c 0.084397,-0.20021 0.1831317,-0.39405 0.295519,-0.57999 l -0.2821096,-0.1705 c 0,0 -0.2123134,-0.12895 -0.4380199,-0.56006 0.078935,-0.11802 0.1624328,-0.23294 0.2502774,-0.34447 0.4797453,0.0814 0.667994,0.24351 0.667994,0.24351 l 0.2493337,0.21562 c 0.1421381,-0.16433 0.295973,-0.31813 0.4602848,-0.46029 l -0.2156153,-0.24933 c 0,0 -0.1620701,-0.18825 -0.2435147,-0.668 0.1117966,-0.0875 0.2267582,-0.17093 0.3444766,-0.25027 0.4311061,0.2257 0.5600589,0.43801 0.5600589,0.43801 l 0.1704979,0.28211 c 0.1859618,-0.11236 0.3797768,-0.21115 0.5799891,-0.29552 l -0.1280101,-0.30379 c 0,0 -0.095967,-0.22911 -0.025168,-0.71055 0.1332406,-0.0491 0.2683248,-0.093 0.4049487,-0.13158 0.3402538,0.34788 0.3972928,0.58965 0.3972928,0.58965 l 0.074978,0.32099 c 0.2115615,-0.0494 0.4264352,-0.0834 0.6429258,-0.10183 l -0.027888,-0.32845"
       id="path845"
       inkscape:connector-curvature="0" />
    <path
       style="fill:none;stroke:#000000;stroke-width:0.1000001;stroke-miterlimit:4;stroke-dasharray:none"
       d="m 5.8497714,287.17356 a 3.5000034,3.5000034 0 0 0 -2.6344671,1.91565 l 1.9461364,0.632 a 1.5000015,1.4999999 0 0 1 0.6883307,-0.50023 z m 0.99994,5.1e-4 v 2.04691 a 1.5000015,1.4999999 0 0 1 0.6903978,0.50075 l 1.9440693,-0.63201 a 3.5000034,3.5000034 0 0 0 -2.6344671,-1.91564 z m 2.9450427,2.86598 -1.9466529,0.63252 a 1.5000015,1.4999999 0 0 1 -0.2625167,0.81132 l 1.2030286,1.65623 a 3.5000034,3.5000034 0 0 0 1.061435,-2.5063 3.5000034,3.5000034 0 0 0 -0.055294,-0.59377 z m -6.888992,5.3e-4 a 3.5000034,3.5000034 0 0 0 -0.055811,0.59325 3.5000034,3.5000034 0 0 0 1.0588512,2.50837 l 1.2061289,-1.65986 a 1.5000015,1.4999999 0 0 1 -0.2635499,-0.80977 z m 3.8700519,2.02985 a 1.5000015,1.4999999 0 0 1 -0.4258142,0.0631 1.5000015,1.4999999 0 0 1 -0.4258143,-0.0625 l -1.2045787,1.65727 a 3.5000034,3.5000034 0 0 0 1.630393,0.40566 3.5000034,3.5000034 0 0 0 1.6303932,-0.40566 z"
       id="path849"
       inkscape:connector-curvature="0" />
    <ellipse
       style="fill:none;stroke:#000000;stroke-width:0.1000001;stroke-miterlimit:4;stroke-dasharray:none"
       id="path963"
       cx="6.3499999"
       cy="290.64984"
       rx="0.50000054"
       ry="0.49999997" />
    <path
       style="fill:#666666;stroke:#000000;stroke-width:0.01077587;stroke-miterlimit:4;stroke-dasharray:none"
       d="m 6.2125422,291.06713 c -0.1173592,-0.0369 -0.2412915,-0.16542 -0.2781559,-0.28846 -0.091952,-0.30691 0.1860848,-0.61416 0.5021108,-0.55488 0.146292,0.0274 0.3171694,0.20386 0.3424606,0.35356 0.024667,0.14601 -0.056114,0.34119 -0.1767688,0.4271 -0.1000898,0.0713 -0.273545,0.0992 -0.3896467,0.0627 z"
       id="path988"
       inkscape:connector-curvature="0" />
    <path
       style="fill:#d4aa00;stroke:#000000;stroke-width:0.01077587;stroke-miterlimit:4;stroke-dasharray:none"
       d="m 6.1094615,295.92281 c -0.093801,-0.25071 -0.1141871,-0.38161 -0.096052,-0.61679 0.016563,-0.21477 0.015473,-0.21969 -0.051334,-0.23202 -0.2683444,-0.0495 -0.6621162,-0.10216 -0.680209,-0.091 -0.01202,0.007 -0.037544,0.094 -0.056721,0.19239 -0.040404,0.20731 -0.1304043,0.38624 -0.2839337,0.5645 l -0.1087142,0.12623 -0.1596516,-0.0503 c -0.1473771,-0.0465 -0.1611256,-0.0582 -0.1788273,-0.15254 -0.034405,-0.1834 0.00788,-0.46814 0.1024002,-0.68961 0.049196,-0.11526 0.085392,-0.21149 0.080435,-0.21383 -0.00496,-0.002 -0.160593,-0.0793 -0.3458581,-0.17111 -0.1852649,-0.0918 -0.3402902,-0.16234 -0.3445003,-0.15681 -0.00421,0.006 -0.054752,0.0888 -0.1123141,0.18501 -0.1158906,0.19375 -0.2591451,0.33558 -0.4547248,0.4502 l -0.1292991,0.0758 -0.1333131,-0.0939 c -0.1269758,-0.0894 -0.1325045,-0.0989 -0.1163085,-0.20049 0.033676,-0.21117 0.1383327,-0.42934 0.2939346,-0.61276 l 0.1566496,-0.18466 -0.2710405,-0.27104 -0.2710407,-0.27104 -0.1897837,0.15654 c -0.1883933,0.1554 -0.410216,0.2623 -0.6108148,0.29438 -0.098809,0.0158 -0.1097337,0.009 -0.2000574,-0.11633 l -0.095541,-0.13303 0.053219,-0.099 c 0.091433,-0.17014 0.2879235,-0.3714 0.4826726,-0.4944 0.1029706,-0.065 0.1831831,-0.12756 0.1782502,-0.13896 -0.00493,-0.0114 -0.083047,-0.1642 -0.1735867,-0.33956 -0.1836197,-0.35565 -0.1410325,-0.33454 -0.425713,-0.21103 -0.1600327,0.0694 -0.4272002,0.10405 -0.6013874,0.0779 -0.1354784,-0.0203 -0.1704606,-0.0631 -0.2058091,-0.25149 -0.016213,-0.0864 -0.0069,-0.10738 0.082632,-0.18599 0.1601775,-0.14064 0.3447649,-0.23671 0.5623261,-0.29267 0.1109576,-0.0285 0.2075419,-0.0577 0.214632,-0.0648 0.00709,-0.007 -0.00759,-0.13316 -0.032629,-0.28016 -0.025036,-0.147 -0.052126,-0.31061 -0.060199,-0.36356 l -0.014679,-0.0963 -0.2142568,0.0137 c -0.244722,0.0157 -0.3838812,-0.005 -0.6161461,-0.092 l -0.16354455,-0.0612 v -0.18123 -0.18122 l 0.16354455,-0.0612 c 0.2322649,-0.0869 0.3714241,-0.10768 0.6161462,-0.092 l 0.2142568,0.0137 0.014679,-0.0963 c 0.00807,-0.053 0.035229,-0.21691 0.060346,-0.36436 0.025117,-0.14744 0.035436,-0.27713 0.022932,-0.2882 -0.012505,-0.0111 -0.1036315,-0.0367 -0.2025042,-0.0569 -0.1855343,-0.038 -0.4442434,-0.17431 -0.5847464,-0.30819 -0.067361,-0.0642 -0.077378,-0.0918 -0.062382,-0.17169 0.03242,-0.17281 0.073731,-0.23057 0.1790452,-0.25033 0.1776274,-0.0333 0.4663192,0.009 0.6763628,0.0992 0.1097678,0.0471 0.2076233,0.0769 0.217456,0.0662 0.032102,-0.0349 0.3452403,-0.66379 0.3346056,-0.67197 -0.00569,-0.004 -0.090148,-0.0557 -0.1876797,-0.11406 -0.1837036,-0.1099 -0.3823167,-0.31258 -0.4746237,-0.48434 l -0.053219,-0.099 0.095541,-0.13304 c 0.090962,-0.12666 0.1006726,-0.13222 0.2026077,-0.11592 0.2108538,0.0337 0.4254597,0.13689 0.6094686,0.29299 l 0.1853543,0.15725 0.2720155,-0.2729 0.2720155,-0.2729 -0.1568409,-0.18488 c -0.1556953,-0.18352 -0.2588993,-0.39833 -0.2925843,-0.60899 -0.016234,-0.10152 -0.010468,-0.11184 0.1112879,-0.19928 0.070625,-0.0507 0.1366378,-0.0922 0.1466957,-0.0922 0.042794,0 0.3544671,0.2316 0.434799,0.3231 0.048135,0.0548 0.1241593,0.16517 0.1689443,0.24522 0.044785,0.0801 0.094257,0.142 0.1099382,0.13766 0.015682,-0.004 0.1725481,-0.0815 0.3485931,-0.17151 0.3581168,-0.18307 0.3366948,-0.13829 0.2079571,-0.43468 -0.067422,-0.15522 -0.104706,-0.46219 -0.075225,-0.61934 0.019756,-0.10531 0.077515,-0.14662 0.2503268,-0.17904 0.079938,-0.015 0.1075082,-0.005 0.1716925,0.0624 0.1338758,0.1405 0.270229,0.39921 0.3081912,0.58474 0.02023,0.0989 0.045397,0.18956 0.055925,0.20153 0.015677,0.0178 0.3633643,-0.0247 0.6823942,-0.0836 0.066623,-0.0123 0.06778,-0.0175 0.052669,-0.23796 -0.016627,-0.24257 0.00204,-0.36283 0.094852,-0.61088 l 0.059313,-0.15853 h 0.180179 0.1801782 l 0.046979,0.11742 c 0.090487,0.22615 0.1227676,0.43086 0.1040414,0.6598 l -0.018034,0.22048 0.086286,0.012 c 0.047457,0.007 0.2131729,0.0327 0.3682565,0.0579 0.1550838,0.0252 0.2875733,0.0402 0.2944215,0.0334 0.00685,-0.007 0.03512,-0.10021 0.062826,-0.20747 0.063208,-0.2447 0.1363677,-0.38836 0.2804787,-0.55075 l 0.1132029,-0.12757 0.1590859,0.0501 c 0.1570433,0.0495 0.1593368,0.0518 0.1785696,0.18007 0.028714,0.19148 -0.00573,0.41037 -0.1031775,0.65568 -0.047544,0.11969 -0.082723,0.21919 -0.078176,0.22113 0.00455,0.002 0.1491611,0.0741 0.3213645,0.16033 0.1722035,0.0862 0.3222345,0.16084 0.3334021,0.16578 0.011168,0.005 0.073513,-0.0753 0.1385444,-0.17825 0.1228375,-0.1945 0.3242274,-0.39123 0.4937813,-0.48235 l 0.098417,-0.0529 0.1317679,0.0957 c 0.1232777,0.0895 0.1308128,0.10236 0.1169377,0.19973 -0.027818,0.1952 -0.1357599,0.42035 -0.2928268,0.61077 l -0.156873,0.19018 0.2709752,0.27098 0.2709757,0.27097 0.1850526,-0.15698 c 0.1854364,-0.15731 0.4071014,-0.26306 0.6131544,-0.29251 0.10037,-0.0143 0.112167,-0.008 0.201203,0.11511 l 0.09458,0.13034 -0.07648,0.1305 c -0.115314,0.19677 -0.256796,0.33983 -0.450906,0.45593 -0.09624,0.0576 -0.18005,0.10866 -0.186251,0.11355 -0.0062,0.005 0.06436,0.15992 0.156811,0.3445 0.09245,0.18459 0.170005,0.33967 0.172349,0.34463 0.0024,0.005 0.09857,-0.0312 0.213833,-0.0804 0.221464,-0.0945 0.506209,-0.1368 0.689603,-0.1024 0.09398,0.0176 0.106175,0.0317 0.151338,0.17501 l 0.04912,0.15582 -0.07547,0.0788 c -0.126561,0.1321 -0.383753,0.26967 -0.599654,0.32074 -0.235598,0.0557 -0.22633,0.0309 -0.164616,0.44136 0.06065,0.40339 0.03082,0.36573 0.277154,0.34992 0.245224,-0.0157 0.384292,0.005 0.616657,0.0919 l 0.163545,0.0612 v 0.17979 0.1798 l -0.16394,0.06 c -0.24956,0.0913 -0.377499,0.11132 -0.614325,0.0961 -0.210364,-0.0135 -0.217091,-0.0119 -0.229908,0.0539 -0.06139,0.31528 -0.10481,0.66217 -0.08508,0.67976 0.01324,0.0118 0.104977,0.038 0.20385,0.0582 0.191212,0.0391 0.450144,0.17726 0.588441,0.31393 l 0.08394,0.083 -0.04925,0.15625 c -0.04842,0.15362 -0.05143,0.15658 -0.178295,0.1756 -0.196393,0.0294 -0.44684,-0.01 -0.670701,-0.10503 -0.111089,-0.0473 -0.203897,-0.0819 -0.20624,-0.0769 -0.0024,0.005 -0.0799,0.16003 -0.172349,0.34462 -0.09245,0.18458 -0.163013,0.33961 -0.156811,0.3445 0.0062,0.005 0.09088,0.0565 0.188168,0.11471 0.188399,0.11271 0.353359,0.28082 0.456631,0.46535 l 0.0633,0.1131 -0.09181,0.13465 c -0.08749,0.12831 -0.09683,0.13389 -0.198433,0.11851 -0.208205,-0.0315 -0.424295,-0.13528 -0.6103662,-0.29314 l -0.1866968,-0.15838 -0.2722184,0.27221 -0.2722182,0.27222 0.1583864,0.1867 c 0.1585491,0.18689 0.2628598,0.40474 0.2922474,0.61037 0.014311,0.10013 0.00746,0.11225 -0.1125565,0.19928 -0.070287,0.051 -0.1354531,0.0927 -0.1448132,0.0927 -0.035458,0 -0.3449591,-0.22558 -0.4164075,-0.3035 -0.041052,-0.0448 -0.1216714,-0.1561 -0.1791557,-0.2474 -0.057484,-0.0913 -0.1139429,-0.16186 -0.1254644,-0.15681 -0.011523,0.005 -0.1618421,0.0797 -0.3340456,0.166 -0.1722034,0.0862 -0.3171526,0.15873 -0.3221096,0.16107 -0.00496,0.002 0.029665,0.0952 0.076937,0.20624 0.095261,0.22386 0.1344802,0.47431 0.1050294,0.6707 -0.019008,0.12676 -0.022103,0.12991 -0.1746583,0.178 l -0.1553071,0.049 -0.078778,-0.0755 c -0.1287193,-0.12332 -0.26436,-0.37375 -0.3203697,-0.5915 -0.028857,-0.11219 -0.059324,-0.21083 -0.067704,-0.21921 -0.00838,-0.008 -0.1186779,0.006 -0.245106,0.0311 -0.1264278,0.0255 -0.2648913,0.0465 -0.3076959,0.0467 -0.1858329,9.2e-4 -0.1937387,0.0115 -0.1763338,0.23633 0.018275,0.23604 -0.00451,0.3942 -0.090152,0.62574 l -0.060638,0.16394 H 6.3485723 6.1687745 Z m 0.9114439,-1.78041 c 0.3043834,-0.062 0.70203,-0.19332 0.9207684,-0.304 l 0.1376044,-0.0696 -0.068093,-0.0911 c -0.037451,-0.0501 -0.3225319,-0.44165 -0.6335124,-0.87012 l -0.5654191,-0.77904 -0.145593,0.0235 c -0.1861501,0.03 -0.4474114,0.03 -0.6340949,-1.1e-4 l -0.1463674,-0.0236 -0.6068183,0.83618 c -0.3337497,0.45989 -0.6184821,0.85149 -0.6327387,0.87022 -0.052646,0.0692 0.5612562,0.31492 1.0190909,0.40795 0.3692549,0.075 0.9863023,0.0749 1.3551733,-2.6e-4 z m -2.4545579,-1.78072 0.6179088,-0.85175 -0.1092606,-0.21615 c -0.073658,-0.14572 -0.1203945,-0.28808 -0.1434289,-0.4369 l -0.034168,-0.22075 -0.214568,-0.0703 c -1.3600261,-0.44582 -1.810122,-0.58214 -1.8277676,-0.55359 -0.033257,0.0538 -0.059178,0.36562 -0.057744,0.69461 0.00303,0.6945 0.1882518,1.29814 0.5866337,1.91184 0.1610164,0.24805 0.4906695,0.61937 0.5363451,0.60414 0.015478,-0.005 0.3062,-0.39266 0.6460494,-0.86112 z m 4.4213253,0.67609 c 0.5872711,-0.64031 0.911967,-1.49041 0.911967,-2.38765 0,-0.29716 -0.033505,-0.62765 -0.067032,-0.66117 -0.00815,-0.008 -0.5920431,0.17735 -1.7759446,0.56422 l -0.2606072,0.0852 -0.019722,0.15785 c -0.023945,0.19165 -0.1053201,0.43548 -0.1982617,0.59407 l -0.06892,0.11761 0.6265165,0.86118 c 0.3445845,0.47365 0.6375372,0.86118 0.6510064,0.86118 0.01347,0 0.1039187,-0.0866 0.2009983,-0.19245 z M 6.6582124,291.1122 c 0.293369,-0.22376 0.336417,-0.57874 0.1011379,-0.83399 -0.1358923,-0.14742 -0.2614877,-0.19526 -0.4677296,-0.17816 -0.2727328,0.0226 -0.4689157,0.2188 -0.4915328,0.49153 -0.015846,0.19108 0.026884,0.3222 0.1442692,0.4427 0.1318732,0.13538 0.234865,0.17391 0.4378594,0.16382 0.1377229,-0.007 0.19623,-0.0251 0.2759959,-0.0859 z M 5.342912,289.63732 c 0.1134095,-0.11341 0.23808,-0.20281 0.3677995,-0.26373 l 0.1962361,-0.0922 5.557e-4,-1.07898 5.556e-4,-1.07897 -0.1496834,0.0203 c -0.2023991,0.0274 -0.5845467,0.13968 -0.8280393,0.2433 -0.7032063,0.29924 -1.3225555,0.87094 -1.7185313,1.58631 -0.04509,0.0815 -0.073799,0.15629 -0.063798,0.16629 0.013049,0.013 1.9383847,0.6509 2.0139149,0.6672 0.00518,10e-4 0.086612,-0.0752 0.1809722,-0.16953 z m 3.1856956,-0.1547 c 0.5536666,-0.17945 1.0125088,-0.33211 1.0196491,-0.33925 0.00714,-0.007 -0.025186,-0.0881 -0.071833,-0.17981 -0.442777,-0.87089 -1.3870388,-1.58005 -2.385499,-1.79154 -0.1095667,-0.0232 -0.2216647,-0.0424 -0.2491068,-0.0427 -0.046656,-4.7e-4 -0.049858,0.0694 -0.04933,1.0758 l 5.556e-4,1.0763 0.1966142,0.0923 c 0.1326678,0.0623 0.2507139,0.1476 0.3629529,0.26225 0.091486,0.0934 0.1670097,0.17056 0.1678301,0.17138 8.202e-4,8.2e-4 0.4544917,-0.14534 1.008158,-0.32478 z"
       id="path998"
       inkscape:connector-curvature="0" />
  </g>
</svg>
