<?xml version="1.0" encoding="UTF-8" standalone="no"?>
<!-- Created with Inkscape (http://www.inkscape.org/) -->

<svg
   xmlns:dc="http://purl.org/dc/elements/1.1/"
   xmlns:cc="http://creativecommons.org/ns#"
   xmlns:rdf="http://www.w3.org/1999/02/22-rdf-syntax-ns#"
   xmlns:svg="http://www.w3.org/2000/svg"
   xmlns="http://www.w3.org/2000/svg"
   xmlns:sodipodi="http://sodipodi.sourceforge.net/DTD/sodipodi-0.dtd"
   xmlns:inkscape="http://www.inkscape.org/namespaces/inkscape"
   inkscape:version="0.92.4 (5da689c313, 2019-01-14)"
   sodipodi:docname="gear02.svg"
   id="svg8"
   version="1.1"
   viewBox="0 0 10.583332 10.583345"
   height="40"
   width="40">
  <defs
     id="defs2">
    <inkscape:path-effect
       effect="gears"
       id="path-effect837"
       is_visible="true"
       teeth="20"
       phi="15"
       min_radius="5" />
    <inkscape:path-effect
       effect="gears"
       id="path-effect4646"
       is_visible="true"
       teeth="20"
       phi="15"
       min_radius="5" />
    <inkscape:path-effect
       effect="gears"
       id="path-effect3727"
       is_visible="true"
       teeth="25"
       phi="20"
       min_radius="5" />
    <inkscape:path-effect
       effect="gears"
       id="path-effect3721"
       is_visible="true"
       teeth="10"
       phi="5"
       min_radius="5" />
    <inkscape:path-effect
       effect="gears"
       id="path-effect3719"
       is_visible="true"
       teeth="10"
       phi="5"
       min_radius="5" />
    <inkscape:path-effect
       effect="gears"
       id="path-effect3727-4"
       is_visible="true"
       teeth="12"
       phi="20"
       min_radius="5" />
    <inkscape:path-effect
       effect="gears"
       id="path-effect3727-1"
       is_visible="true"
       teeth="30"
       phi="20"
       min_radius="5" />
  </defs>
  <sodipodi:namedview
     id="base"
     pagecolor="#ffffff"
     bordercolor="#666666"
     borderopacity="1.0"
     inkscape:pageopacity="0.0"
     inkscape:pageshadow="2"
     inkscape:zoom="16.01"
     inkscape:cx="27.453734"
     inkscape:cy="21.83292"
     inkscape:document-units="mm"
     inkscape:current-layer="layer1"
     showgrid="true"
     inkscape:window-width="1920"
     inkscape:window-height="1017"
     inkscape:window-x="1912"
     inkscape:window-y="-8"
     inkscape:window-maximized="1"
     inkscape:snap-global="true"
     units="px"
     showguides="true"
     inkscape:guide-bbox="true">
    <inkscape:grid
       type="xygrid"
       id="grid3713"
       units="mm"
       spacingx="1"
       spacingy="1" />
  </sodipodi:namedview>
  <metadata
     id="metadata5">
    <rdf:RDF>
      <cc:Work
         rdf:about="">
        <dc:format>image/svg+xml</dc:format>
        <dc:type
           rdf:resource="http://purl.org/dc/dcmitype/StillImage" />
        <dc:title></dc:title>
      </cc:Work>
    </rdf:RDF>
  </metadata>
  <g
     inkscape:label="レイヤー 1"
     inkscape:groupmode="layer"
     id="layer1"
     transform="translate(0,-286.41655)">
    <path
       style="fill:none;stroke:#000000;stroke-width:0.1000001;stroke-linecap:butt;stroke-linejoin:miter;stroke-miterlimit:4;stroke-dasharray:none;stroke-opacity:1"
       d="m 1.6955481,291.97647 c 0,0 -0.238326,0.0174 -0.63794,-0.2208 -0.0017,-0.13487 0.0029,-0.26974 0.01401,-0.40416 0.415146,-0.20994 0.651696,-0.1761 0.651696,-0.1761 l 0.368288,0.054 c 0.03099,-0.21148 0.08277,-0.41939 0.154588,-0.62071 l -0.350583,-0.12506 c 0,0 -0.224791,-0.0811 -0.492977,-0.46119 0.05326,-0.12391 0.112385,-0.24522 0.17718,-0.36351 0.464649,-0.0229 0.666983,0.10419 0.666983,0.10419 l 0.314495,0.1991 c 0.114331,-0.18059 0.246199,-0.34947 0.393687,-0.50417 l -0.269406,-0.25684 c 0,0 -0.172388,-0.16548 -0.262774,-0.62183 0.09905,-0.0915 0.20241,-0.17831 0.309716,-0.26002 0.433809,0.16803 0.566942,0.36647 0.566942,0.36647 l 0.206323,0.3098 c 0.177901,-0.11848 0.367055,-0.21911 0.564715,-0.30045 l -0.141646,-0.34422 c 0,0 -0.09018,-0.22129 0.01286,-0.67495 0.127723,-0.0433 0.257437,-0.0806 0.3887,-0.11156 0.32796,0.32995 0.368872,0.56538 0.368872,0.56538 l 0.06248,0.36694 c 0.210709,-0.0359 0.424443,-0.0509 0.638098,-0.0448 l 0.0106,-0.37207 c 0,0 0.0076,-0.23884 0.286279,-0.61137 0.134306,0.0124 0.267949,0.0311 0.400473,0.0562 0.165403,0.43482 0.107021,0.66654 0.107021,0.66654 l -0.09217,0.36062 c 0.207084,0.0529 0.408442,0.12616 0.601148,0.21863 l 0.161023,-0.33559 c 0,0 0.104109,-0.21509 0.510192,-0.44207 0.117668,0.0659 0.232132,0.1374 0.343002,0.2142 -0.02575,0.46451 -0.173336,0.65244 -0.173336,0.65244 l -0.230886,0.29196 c 0.167653,0.13258 0.321818,0.28138 0.460255,0.44423 l 0.283598,-0.24108 c 0,0 0.182592,-0.15415 0.64589,-0.19634 0.08068,0.10808 0.156176,0.21994 0.226222,0.3352 -0.212456,0.41387 -0.423721,0.52553 -0.423721,0.52553 l -0.329676,0.17281 c 0.09923,0.18931 0.179548,0.38795 0.239779,0.59303 l 0.357137,-0.10489 c 0,0 0.229504,-0.0665 0.669907,0.0834 0.02975,0.13155 0.05322,0.26444 0.07033,0.39823 -0.362423,0.29167 -0.60084,0.30775 -0.60084,0.30775 l -0.371462,0.0238 c 0.01365,0.2133 0.0062,0.42743 -0.02216,0.63928 l 0.368924,0.0494 c 0,0 0.236731,0.0326 0.578091,0.34862 -0.02633,0.13228 -0.05894,0.26323 -0.09773,0.3924 -0.449725,0.11905 -0.67407,0.0368 -0.67407,0.0368 l -0.349018,-0.12937 c -0.07429,0.20042 -0.168161,0.39302 -0.280262,0.575 l 0.31692,0.19522 c 0,0 0.203026,0.12603 0.386318,0.55361 -0.07786,0.11013 -0.160914,0.2165 -0.248887,0.31873 -0.459265,-0.0742 -0.630746,-0.24058 -0.630746,-0.24058 l -0.266227,-0.26014 c -0.14938,0.15287 -0.313477,0.29064 -0.489906,0.4113 l 0.210117,0.30724 c 0,0 0.134217,0.19771 0.127747,0.66288 -0.115921,0.0689 -0.235059,0.13233 -0.357009,0.18994 -0.389394,-0.25455 -0.478361,-0.47633 -0.478361,-0.47633 l -0.137402,-0.34593 c -0.198645,0.0789 -0.40459,0.13801 -0.614842,0.17647 l 0.06698,0.36615 c 0,0 0.0422,0.2352 -0.152912,0.65752 -0.133942,0.0158 -0.268562,0.0253 -0.403402,0.0283 -0.252193,-0.39093 -0.243262,-0.62972 -0.243262,-0.62972 l 0.01518,-0.37191 c -0.213564,-0.009 -0.425747,-0.0385 -0.633466,-0.0889 l -0.08773,0.36173 c 0,0 -0.05711,0.23203 -0.407132,0.53849 -0.128802,-0.04 -0.255626,-0.0861 -0.380042,-0.13822 -0.07139,-0.4597 0.0339,-0.67422 0.0339,-0.67422 l 0.165139,-0.33358 c -0.191554,-0.0948 -0.373287,-0.20832 -0.542557,-0.33883 l -0.227278,0.29478 c 0,0 -0.146553,0.18874 -0.590955,0.32633 -0.101391,-0.0889 -0.198491,-0.18266 -0.29097,-0.28084 0.121765,-0.449 0.305197,-0.60214 0.305197,-0.60214 l 0.286543,-0.23758 c -0.136424,-0.16454 -0.256283,-0.34214 -0.357836,-0.53021 l -0.327525,0.17685 c 0,0 -0.210651,0.11281 -0.672596,0.0578 -0.05645,-0.1225 -0.107036,-0.24761 -0.151587,-0.37491 0.293862,-0.36066 0.523725,-0.42595 0.523725,-0.42595 l 0.358401,-0.10049 c -0.0577,-0.20581 -0.09497,-0.4168 -0.111241,-0.62992 l -0.371141,0.0283"
       id="path843"
       inkscape:connector-curvature="0" />
    <path
       style="fill:none;stroke:#000000;stroke-width:0.1000001;stroke-miterlimit:4;stroke-dasharray:none"
       d="m 5.791896,289.25881 v 1.58388 a 1.000001,0.99999993 0 0 1 0.3648359,0.36536 H 7.7406161 A 2.5000025,2.5000025 0 0 0 5.791896,289.25881 Z m -0.99994,0.003 a 2.5000025,2.5000025 0 0 0 -1.9461365,1.94666 h 1.5807836 a 1.000001,0.99999993 0 0 1 0.3653529,-0.36484 z m -1.9492371,2.9466 a 2.5000025,2.5000025 0 0 0 1.9492371,1.94923 v -1.58388 a 1.000001,0.99999993 0 0 1 -0.3648362,-0.36535 z m 3.3145297,0 a 1.000001,0.99999993 0 0 1 -0.3653526,0.36483 v 1.58181 a 2.5000025,2.5000025 0 0 0 1.9461362,-1.94665 z"
       id="path847"
       inkscape:connector-curvature="0" />
    <ellipse
       style="fill:none;stroke:#000000;stroke-width:0.1000001;stroke-miterlimit:4;stroke-dasharray:none"
       id="path963-9"
       cx="5.291666"
       cy="291.70822"
       rx="0.50000054"
       ry="0.49999997" />
    <path
       style="fill:#666666;stroke:#000000;stroke-width:0.01077587;stroke-miterlimit:4;stroke-dasharray:none"
       d="m 5.058162,292.07023 c -0.097681,-0.0626 -0.2084191,-0.25834 -0.2084191,-0.36845 0,-0.0997 0.1036024,-0.29113 0.1928647,-0.35639 0.057473,-0.042 0.122996,-0.057 0.2490584,-0.057 0.1260624,0 0.191585,0.015 0.2490584,0.057 0.090902,0.0665 0.1928647,0.25726 0.1928647,0.36091 0,0.11728 -0.1202688,0.31228 -0.2283552,0.37025 -0.1317989,0.0707 -0.3312581,0.0679 -0.4470719,-0.006 z"
       id="path990"
       inkscape:connector-curvature="0" />
    <path
       style="fill:#d4aa00;stroke:#000000;stroke-width:0.01077587;stroke-miterlimit:4;stroke-dasharray:none"
       d="m 5.4195184,295.82185 c -0.1302739,-0.19947 -0.1684527,-0.34162 -0.1684742,-0.62724 -1.16e-5,-0.15708 -0.012824,-0.29452 -0.028532,-0.30606 -0.015682,-0.0115 -0.08191,-0.0211 -0.1471754,-0.0214 -0.065266,-2.3e-4 -0.218332,-0.0195 -0.3401482,-0.0428 -0.1218161,-0.0233 -0.2237972,-0.0393 -0.2266254,-0.0356 -0.00283,0.004 -0.02796,0.10297 -0.055849,0.22057 -0.027889,0.11761 -0.069539,0.25114 -0.092556,0.29673 -0.060137,0.11911 -0.2919561,0.35914 -0.3461441,0.35841 -0.025297,-3.5e-4 -0.1020486,-0.0261 -0.1705609,-0.0571 l -0.1245679,-0.0565 0.012494,-0.2636 c 0.011102,-0.23424 0.024186,-0.28655 0.1174399,-0.46959 0.05772,-0.1133 0.1049452,-0.2172 0.1049452,-0.23089 0,-0.0137 -0.052895,-0.0487 -0.1175444,-0.0779 -0.064649,-0.0291 -0.2055444,-0.11363 -0.3130998,-0.18772 l -0.1955556,-0.13472 -0.1652329,0.20478 c -0.1289308,0.15978 -0.2089123,0.22806 -0.3640404,0.31079 -0.1093439,0.0583 -0.2186558,0.10642 -0.2429152,0.10691 -0.02426,5.1e-4 -0.092208,-0.0483 -0.1509973,-0.10856 l -0.1068889,-0.10946 0.059262,-0.1584 c 0.078279,-0.20921 0.183997,-0.35049 0.3790276,-0.50652 0.088205,-0.0706 0.1609806,-0.13506 0.1617225,-0.14332 7.409e-4,-0.008 -0.051554,-0.0853 -0.116212,-0.17107 -0.064658,-0.0858 -0.1552404,-0.2226 -0.2012936,-0.30394 l -0.083732,-0.14791 -0.2599436,0.12652 c -0.242979,0.11826 -0.2752,0.12652 -0.4937188,0.12652 H 1.5088259 l -0.062893,-0.1462 -0.062894,-0.1462 0.1235327,-0.12693 c 0.1582904,-0.16265 0.3054086,-0.24741 0.5369444,-0.30936 0.1019274,-0.0273 0.1945105,-0.0575 0.2057405,-0.0672 0.011229,-0.01 0.0018,-0.0889 -0.02096,-0.17607 -0.02276,-0.0872 -0.051192,-0.24706 -0.063185,-0.35535 l -0.021807,-0.1969 -0.3278783,-0.001 c -0.2989615,-10e-4 -0.3435941,-0.008 -0.5060733,-0.0827 l -0.1781947,-0.0816 v -0.13883 c 0,-0.17465 0.054998,-0.23412 0.2759435,-0.29835 0.1248771,-0.0363 0.2231223,-0.0435 0.4106795,-0.0302 0.1355944,0.01 0.2664085,0.0251 0.2906983,0.0344 0.034849,0.0134 0.05101,-0.0181 0.076625,-0.1491 0.017854,-0.0913 0.058331,-0.25433 0.08995,-0.36224 0.031619,-0.10791 0.046985,-0.20526 0.034147,-0.21635 -0.012838,-0.0111 -0.1232073,-0.0558 -0.2452655,-0.0993 -0.1845326,-0.0658 -0.2505853,-0.10779 -0.3920285,-0.24923 -0.093557,-0.0936 -0.1701043,-0.18234 -0.1701043,-0.19729 0,-0.0149 0.032291,-0.0909 0.071758,-0.16878 0.080259,-0.15839 0.084017,-0.15948 0.3844204,-0.11171 0.1395854,0.0222 0.2411482,0.0636 0.4115225,0.16786 l 0.2262,0.1384 0.1369659,-0.18947 c 0.075331,-0.1042 0.1781362,-0.23791 0.2284555,-0.29714 l 0.09149,-0.10768 -0.1879541,-0.19169 c -0.202766,-0.20679 -0.2492563,-0.28177 -0.3174109,-0.51191 l -0.044172,-0.14916 0.1283297,-0.10516 0.1283296,-0.10515 0.119451,0.0588 c 0.2154872,0.10612 0.3593255,0.23295 0.4941411,0.43569 l 0.1327633,0.19966 0.088408,-0.0583 c 0.048624,-0.0321 0.1910476,-0.11059 0.3164964,-0.17449 0.1254492,-0.0639 0.2329392,-0.12061 0.2388664,-0.12602 0.00593,-0.005 -0.029424,-0.10977 -0.078559,-0.2319 -0.072768,-0.18088 -0.089235,-0.26172 -0.088793,-0.4359 7.937e-4,-0.31142 0.00936,-0.32937 0.1805151,-0.37836 0.1430979,-0.041 0.1490923,-0.0403 0.218877,0.0245 0.1430638,0.13287 0.2551388,0.36156 0.2987472,0.60959 0.022939,0.13048 0.045668,0.24119 0.050507,0.24603 0.00484,0.005 0.091713,-0.003 0.1930534,-0.0178 0.1013403,-0.0147 0.2641986,-0.0269 0.361907,-0.0272 0.2055563,-6.7e-4 0.1994322,0.009 0.2134589,-0.34271 0.00656,-0.1646 0.02658,-0.24994 0.086948,-0.37065 0.1306609,-0.26126 0.1374091,-0.26642 0.3185962,-0.24378 l 0.1580538,0.0198 0.040643,0.14765 c 0.075722,0.27511 0.077994,0.34989 0.017796,0.58566 -0.031913,0.12499 -0.058024,0.24011 -0.058024,0.25581 0,0.0157 0.1058477,0.0635 0.2352172,0.1061 0.1293694,0.0427 0.2845731,0.10234 0.3448969,0.13263 0.060324,0.0303 0.1137394,0.051 0.1187014,0.046 0.00496,-0.005 0.053022,-0.10573 0.1068,-0.2238 0.075767,-0.16636 0.1356806,-0.24847 0.2661454,-0.36475 0.092602,-0.0825 0.1952624,-0.15682 0.2281348,-0.16507 0.036227,-0.009 0.109989,0.0153 0.1872715,0.062 l 0.1275034,0.077 -0.023299,0.17037 c -0.029786,0.2178 -0.096528,0.3646 -0.2616507,0.57551 -0.1327609,0.16958 -0.1553736,0.21598 -0.1052453,0.21598 0.014854,0 0.1361862,0.1082 0.2696287,0.24045 l 0.2426231,0.24045 0.2005838,-0.168 c 0.1943001,-0.16274 0.3246541,-0.223 0.5901296,-0.2728 0.1049339,-0.0197 0.111137,-0.0149 0.2445123,0.18765 0.0481,0.0731 0.047127,0.0776 -0.04619,0.21568 -0.1378058,0.20391 -0.224948,0.28154 -0.4621138,0.41171 l -0.2110115,0.11581 0.067705,0.13464 c 0.037237,0.0741 0.097086,0.21804 0.132997,0.31997 0.035911,0.10193 0.074488,0.19595 0.085727,0.20894 0.01124,0.013 0.1150105,-0.005 0.2306036,-0.0391 0.1666097,-0.0497 0.254489,-0.0596 0.4240035,-0.0476 0.3289576,0.0232 0.3622998,0.0434 0.3861206,0.23408 0.023133,0.18515 0.020516,0.18842 -0.2658944,0.33229 -0.1425134,0.0716 -0.2283756,0.0935 -0.4199452,0.10699 l -0.2408044,0.017 -0.013049,0.37476 -0.013049,0.37475 0.2319486,0.0339 c 0.2494629,0.0365 0.4452669,0.12034 0.6017507,0.25773 l 0.098113,0.0862 -0.038236,0.14494 c -0.021029,0.0797 -0.044475,0.15119 -0.0521,0.15881 -0.00763,0.008 -0.1116225,0.0276 -0.2311064,0.0444 -0.2096121,0.0294 -0.2267865,0.0272 -0.4889335,-0.0623 -0.1494302,-0.051 -0.2759012,-0.0883 -0.2810471,-0.0829 -0.00515,0.005 -0.042207,0.091 -0.082358,0.19017 -0.040151,0.0992 -0.1127402,0.24493 -0.1613085,0.32386 -0.048569,0.0789 -0.084358,0.14646 -0.079532,0.15006 0.00483,0.004 0.089071,0.0554 0.1872112,0.11514 0.204585,0.12451 0.3746977,0.29763 0.4634846,0.47166 l 0.061493,0.12054 -0.084885,0.11751 c -0.046687,0.0646 -0.1122689,0.12166 -0.145738,0.12673 -0.033469,0.005 -0.1452582,-0.0189 -0.2484204,-0.0532 -0.1492564,-0.0497 -0.2269752,-0.0996 -0.3805035,-0.24443 -0.1061144,-0.1001 -0.2022385,-0.18201 -0.2136087,-0.18201 -0.011369,0 -0.1058218,0.078 -0.2098926,0.17339 -0.104071,0.0954 -0.2247156,0.19435 -0.2680996,0.21998 -0.043384,0.0256 -0.07888,0.0597 -0.07888,0.0757 0,0.016 0.057296,0.11268 0.1273237,0.21481 0.1306638,0.19058 0.2148102,0.437 0.2148102,0.62909 0,0.095 -0.011848,0.10997 -0.1438015,0.18179 -0.1636412,0.0891 -0.1478043,0.0946 -0.38958,-0.13667 -0.1164621,-0.11142 -0.1682016,-0.1917 -0.239934,-0.3723 -0.0503,-0.12664 -0.09358,-0.23343 -0.096179,-0.23732 -0.00259,-0.004 -0.095605,0.0238 -0.2066803,0.0616 -0.1110751,0.0378 -0.2736165,0.0836 -0.3612026,0.10175 -0.087586,0.0182 -0.1592479,0.0371 -0.1592479,0.0421 0,0.005 0.020074,0.11491 0.04461,0.24425 0.048533,0.25585 0.03857,0.381 -0.0491,0.61677 l -0.054702,0.1471 -0.1597762,0.01 c -0.1346968,0.008 -0.1656211,7.4e-4 -0.1970155,-0.0473 z m -0.5533962,-2.43632 v -0.82545 L 4.6509088,292.34487 4.4356957,292.12966 H 3.6079861 2.7802766 l 0.019809,0.0927 c 0.050948,0.23833 0.1666748,0.5416 0.2906679,0.76172 0.1744217,0.30964 0.5598433,0.70667 0.8728179,0.89909 0.2190951,0.13471 0.7114439,0.32708 0.8384017,0.32759 l 0.06415,2.5e-4 z m 1.1873377,0.76554 c 0.4387994,-0.13448 0.8972019,-0.43307 1.1887003,-0.77427 0.2679684,-0.31366 0.4922279,-0.76457 0.5741784,-1.15448 l 0.019476,-0.0927 H 7.008105 6.1803954 l -0.2152131,0.21521 -0.2152133,0.21521 v 0.82545 c 0,0.94832 -0.031732,0.86828 0.3034914,0.76554 z m -0.4319751,-1.98563 c 0.3979538,-0.2763 0.2838699,-0.88673 -0.1878803,-1.0053 -0.4473402,-0.11243 -0.8241633,0.35838 -0.6276396,0.78419 0.1444563,0.313 0.5318794,0.41804 0.8155199,0.22111 z M 4.533476,291.18918 c 0.027662,-0.0468 0.1138165,-0.13984 0.1914559,-0.2067 l 0.1411625,-0.12157 1.38e-5,-0.83712 1.4e-5,-0.83713 -0.1069169,0.0198 c -0.3126098,0.0579 -0.7366167,0.25702 -1.0331186,0.48518 -0.441753,0.33992 -0.8134247,0.93746 -0.9267982,1.49002 l -0.019013,0.0927 h 0.8514531 0.851453 z m 3.2978073,0.0632 c 0,-0.0657 -0.1266471,-0.46327 -0.1970354,-0.61851 -0.3230155,-0.7124 -1.055838,-1.30133 -1.7773628,-1.42837 l -0.1069166,-0.0188 1.37e-5,0.83713 1.4e-5,0.83712 0.1411625,0.12157 c 0.077639,0.0669 0.1637945,0.15988 0.1914559,0.2067 l 0.050293,0.0851 h 0.8491877 c 0.467053,0 0.8491876,-0.01 0.8491876,-0.022 z"
       id="path1000"
       inkscape:connector-curvature="0" />
  </g>
</svg>
