<?xml version="1.0" encoding="UTF-8" standalone="no"?>
<!-- Created with Inkscape (http://www.inkscape.org/) -->

<svg
   xmlns:dc="http://purl.org/dc/elements/1.1/"
   xmlns:cc="http://creativecommons.org/ns#"
   xmlns:rdf="http://www.w3.org/1999/02/22-rdf-syntax-ns#"
   xmlns:svg="http://www.w3.org/2000/svg"
   xmlns="http://www.w3.org/2000/svg"
   xmlns:sodipodi="http://sodipodi.sourceforge.net/DTD/sodipodi-0.dtd"
   xmlns:inkscape="http://www.inkscape.org/namespaces/inkscape"
   inkscape:version="0.92.4 (5da689c313, 2019-01-14)"
   sodipodi:docname="gear03.svg"
   id="svg8"
   version="1.1"
   viewBox="0 0 8.4666664 8.4666753"
   height="32"
   width="32">
  <defs
     id="defs2">
    <inkscape:path-effect
       effect="gears"
       id="path-effect837"
       is_visible="true"
       teeth="20"
       phi="15"
       min_radius="5" />
    <inkscape:path-effect
       effect="gears"
       id="path-effect4646"
       is_visible="true"
       teeth="20"
       phi="15"
       min_radius="5" />
    <inkscape:path-effect
       effect="gears"
       id="path-effect3727"
       is_visible="true"
       teeth="25"
       phi="20"
       min_radius="5" />
    <inkscape:path-effect
       effect="gears"
       id="path-effect3721"
       is_visible="true"
       teeth="10"
       phi="5"
       min_radius="5" />
    <inkscape:path-effect
       effect="gears"
       id="path-effect3719"
       is_visible="true"
       teeth="10"
       phi="5"
       min_radius="5" />
    <inkscape:path-effect
       effect="gears"
       id="path-effect3727-4"
       is_visible="true"
       teeth="12"
       phi="20"
       min_radius="5" />
    <inkscape:path-effect
       effect="gears"
       id="path-effect3727-1"
       is_visible="true"
       teeth="30"
       phi="20"
       min_radius="5" />
  </defs>
  <sodipodi:namedview
     id="base"
     pagecolor="#ffffff"
     bordercolor="#666666"
     borderopacity="1.0"
     inkscape:pageopacity="0.0"
     inkscape:pageshadow="2"
     inkscape:zoom="9.28"
     inkscape:cx="24.940441"
     inkscape:cy="21.83292"
     inkscape:document-units="mm"
     inkscape:current-layer="layer1"
     showgrid="true"
     inkscape:window-width="1920"
     inkscape:window-height="1017"
     inkscape:window-x="1912"
     inkscape:window-y="-8"
     inkscape:window-maximized="1"
     inkscape:snap-global="true"
     units="px"
     showguides="true"
     inkscape:guide-bbox="true">
    <inkscape:grid
       type="xygrid"
       id="grid3713"
       units="mm"
       spacingx="1"
       spacingy="1" />
  </sodipodi:namedview>
  <metadata
     id="metadata5">
    <rdf:RDF>
      <cc:Work
         rdf:about="">
        <dc:format>image/svg+xml</dc:format>
        <dc:type
           rdf:resource="http://purl.org/dc/dcmitype/StillImage" />
        <dc:title></dc:title>
      </cc:Work>
    </rdf:RDF>
  </metadata>
  <g
     inkscape:label="レイヤー 1"
     inkscape:groupmode="layer"
     id="layer1"
     transform="translate(0,-288.53319)">
    <path
       style="fill:none;stroke:#000000;stroke-width:0.1000001;stroke-linecap:butt;stroke-linejoin:miter;stroke-miterlimit:4;stroke-dasharray:none;stroke-opacity:1"
       d="m 6.5806097,293.33365 c 0,0 0.228229,0.0568 0.482,0.43047 -0.04079,0.11567 -0.08863,0.22874 -0.143253,0.33855 -0.444902,0.078 -0.64459,-0.0462 -0.64459,-0.0462 l -0.350676,-0.22158 c -0.1077,0.17045 -0.240555,0.32363 -0.394059,0.45436 l 0.268945,0.31581 c 0,0 0.15125,0.18011 0.136918,0.63158 -0.100986,0.0696 -0.206145,0.13295 -0.314886,0.18969 -0.4058,-0.19838 -0.494314,-0.41628 -0.494314,-0.41628 l -0.153461,-0.38539 c -0.187318,0.0746 -0.384838,0.12043 -0.585862,0.13596 l 0.03195,0.41358 c 0,0 0.0165,0.23462 -0.260461,0.59144 -0.122614,-0.003 -0.244925,-0.0136 -0.366245,-0.0316 -0.211696,-0.39901 -0.155226,-0.62733 -0.155226,-0.62733 l 0.102371,-0.40198 c -0.195386,-0.0498 -0.382126,-0.12877 -0.553885,-0.23437 l -0.21725,0.35337 c 0,0 -0.124556,0.19951 -0.558355,0.32539 -0.09741,-0.0745 -0.19015,-0.15497 -0.27771,-0.24086 0.06327,-0.44724 0.243154,-0.59876 0.243154,-0.59876 l 0.3191,-0.26504 c -0.128824,-0.1551 -0.233454,-0.32879 -0.310343,-0.51517 l -0.383468,0.15819 c 0,0 -0.218032,0.0882 -0.642974,-0.065 -0.03499,-0.11756 -0.06275,-0.23714 -0.0831,-0.3581 0.314067,-0.32463 0.548656,-0.34148 0.548656,-0.34148 l 0.413944,-0.0269 c -0.01305,-0.2012 0.0044,-0.40321 0.05174,-0.5992 l -0.403213,-0.0974 c 0,0 -0.228229,-0.0568 -0.482,-0.43047 0.04079,-0.11567 0.08863,-0.22874 0.143253,-0.33855 0.444902,-0.078 0.64459,0.0462 0.64459,0.0462 l 0.350676,0.22158 c 0.1077,-0.17045 0.240555,-0.32363 0.394059,-0.45436 l -0.268945,-0.31581 c 0,0 -0.15125,-0.18011 -0.136918,-0.63158 0.100986,-0.0696 0.206145,-0.13295 0.314886,-0.18969 0.4058,0.19838 0.494314,0.41628 0.494314,0.41628 l 0.153461,0.38539 c 0.187318,-0.0746 0.384838,-0.12043 0.585862,-0.13596 l -0.03195,-0.41358 c 0,0 -0.0165,-0.23462 0.260461,-0.59144 0.122614,0.003 0.244925,0.0136 0.366245,0.0316 0.211696,0.39901 0.155226,0.62733 0.155226,0.62733 l -0.102371,0.40198 c 0.195386,0.0498 0.382126,0.12877 0.553885,0.23437 l 0.21725,-0.35337 c 0,0 0.124556,-0.19951 0.558355,-0.32539 0.09741,0.0745 0.19015,0.15497 0.27771,0.24086 -0.06327,0.44724 -0.243154,0.59876 -0.243154,0.59876 l -0.3191,0.26504 c 0.128824,0.1551 0.233454,0.32879 0.310343,0.51517 l 0.383468,-0.15819 c 0,0 0.218032,-0.0882 0.642974,0.0649 0.03499,0.11756 0.06275,0.23714 0.0831,0.3581 -0.314067,0.32463 -0.548656,0.34148 -0.548656,0.34148 l -0.413944,0.0269 c 0.01306,0.2012 -0.0044,0.40321 -0.05174,0.5992 l 0.403213,0.0974"
       id="path835"
       inkscape:connector-curvature="0" />
    <ellipse
       style="fill:none;stroke:#000000;stroke-width:0.1000001;stroke-miterlimit:4;stroke-dasharray:none"
       id="path965"
       cx="4.2333331"
       cy="292.76654"
       rx="1.0000011"
       ry="0.99999994" />
    <ellipse
       style="fill:none;stroke:#000000;stroke-width:0.1000001;stroke-miterlimit:4;stroke-dasharray:none"
       id="path963-5"
       cx="4.2333331"
       cy="292.76654"
       rx="0.50000054"
       ry="0.49999997" />
    <path
       style="fill:#666666;stroke:#000000;stroke-width:0.01077587;stroke-miterlimit:4;stroke-dasharray:none"
       d="m 4.063401,293.16473 c -0.1826675,-0.0796 -0.3020849,-0.31005 -0.256105,-0.4943 0.055869,-0.22387 0.3193482,-0.38693 0.5254524,-0.32518 0.1570484,0.0471 0.2481472,0.12936 0.303452,0.27418 0.060136,0.15746 0.038867,0.29379 -0.065116,0.41737 -0.1314145,0.15618 -0.3286954,0.20589 -0.5076834,0.12793 z"
       id="path992"
       inkscape:connector-curvature="0" />
    <path
       style="fill:#b3b3b3;stroke:#000000;stroke-width:0.01077587;stroke-miterlimit:4;stroke-dasharray:none"
       d="m 3.9306109,293.65125 c -0.4080133,-0.15236 -0.6391213,-0.50031 -0.6188103,-0.93167 0.016701,-0.3547 0.2056527,-0.64359 0.5231212,-0.79981 0.1190047,-0.0586 0.1830808,-0.0697 0.3984127,-0.0692 0.2140611,4.8e-4 0.2802334,0.0122 0.3991563,0.0706 0.3176485,0.15605 0.5056611,0.44342 0.5223772,0.79843 0.017761,0.3772 -0.1569557,0.69113 -0.4837331,0.86917 -0.1283834,0.07 -0.1912659,0.0846 -0.3950337,0.0921 -0.1546234,0.006 -0.2796804,-0.005 -0.3454903,-0.0296 z m 0.5664592,-0.39341 c 0.1712943,-0.0829 0.2713376,-0.24018 0.2865445,-0.45042 0.039497,-0.54603 -0.6185625,-0.80841 -0.9839136,-0.39229 -0.1017917,0.11593 -0.1362915,0.24641 -0.1150293,0.43505 0.041793,0.37078 0.4575785,0.57942 0.8123984,0.40766 z"
       id="path996"
       inkscape:connector-curvature="0" />
    <path
       style="fill:#d4aa00;stroke:#000000;stroke-width:0.01077587;stroke-miterlimit:4;stroke-dasharray:none"
       d="m 3.9695155,295.69095 c -0.1408215,-0.008 -0.1434662,-0.0102 -0.1982504,-0.14256 -0.094925,-0.22939 -0.083679,-0.54733 0.029822,-0.84311 0.011189,-0.0292 -0.027492,-0.0547 -0.1359711,-0.0898 -0.083385,-0.027 -0.2257655,-0.086 -0.3164013,-0.13123 -0.090635,-0.0452 -0.1745722,-0.0822 -0.1865264,-0.0822 -0.011954,0 -0.068707,0.0803 -0.126118,0.17844 -0.1320225,0.22569 -0.2515171,0.34095 -0.4470349,0.43121 -0.1517461,0.0701 -0.1560575,0.0704 -0.2280893,0.0191 -0.1671605,-0.11916 -0.1779708,-0.1461 -0.1272787,-0.31726 0.07008,-0.23662 0.1089071,-0.29417 0.3172471,-0.47018 0.106035,-0.0896 0.1967218,-0.17287 0.2015264,-0.18509 0.0048,-0.0122 -0.035387,-0.0842 -0.089315,-0.15995 -0.053928,-0.0758 -0.1318479,-0.20509 -0.1731552,-0.28742 -0.041308,-0.0823 -0.084754,-0.14968 -0.096547,-0.14968 -0.011793,0 -0.1174254,0.041 -0.234737,0.0911 -0.2315557,0.0989 -0.4258624,0.11564 -0.6432382,0.0555 -0.1078599,-0.0298 -0.1186049,-0.042 -0.1477141,-0.16779 -0.030499,-0.13177 -0.028843,-0.13828 0.058208,-0.22875 0.1388312,-0.14428 0.3453054,-0.23476 0.5357397,-0.23476 0.089048,0 0.2005927,-0.008 0.2478775,-0.0172 l 0.085973,-0.0172 0.014327,-0.2893 c 0.00788,-0.15912 0.023072,-0.31611 0.033763,-0.34887 0.017896,-0.0548 6.35e-4,-0.0636 -0.2179074,-0.11034 -0.2815148,-0.0602 -0.3077163,-0.0727 -0.4714035,-0.22354 -0.1804193,-0.1663 -0.1931294,-0.19989 -0.1317778,-0.34822 0.055284,-0.13367 0.095279,-0.15583 0.2803031,-0.15536 0.1909791,4.7e-4 0.3166494,0.0435 0.5336513,0.18273 l 0.2076389,0.13321 0.071181,-0.0944 c 0.039149,-0.0519 0.1452413,-0.17269 0.2357601,-0.26842 l 0.1645795,-0.17405 -0.1704395,-0.2035 c -0.1787424,-0.21341 -0.258314,-0.40041 -0.258314,-0.60707 0,-0.0975 0.012152,-0.11479 0.1285146,-0.18298 l 0.1285143,-0.0753 0.1422687,0.0913 c 0.1940017,0.12449 0.2602347,0.21105 0.3701565,0.48374 0.083972,0.20831 0.1005684,0.23134 0.1541427,0.21385 0.2093464,-0.0684 0.4444165,-0.1244 0.527645,-0.12581 l 0.096961,-0.002 -0.017714,-0.26966 c -0.019431,-0.29581 0.00951,-0.42526 0.1389265,-0.62132 0.066061,-0.10008 0.079766,-0.10692 0.214328,-0.10692 h 0.1437546 l 0.060633,0.13543 c 0.086615,0.19346 0.095136,0.40627 0.026893,0.67167 l -0.057242,0.22261 0.070645,0.0269 c 0.038855,0.0148 0.08609,0.0269 0.1049662,0.0269 0.018878,0 0.1335245,0.0498 0.2547731,0.11075 l 0.2204521,0.11075 0.127918,-0.20524 c 0.070355,-0.11288 0.1569443,-0.23232 0.1924213,-0.26543 0.074089,-0.0691 0.3391234,-0.20722 0.3965227,-0.20659 0.021243,2.4e-4 0.087426,0.0419 0.1470704,0.0927 l 0.1084441,0.0922 -0.060569,0.19528 c -0.064501,0.20796 -0.1792879,0.35821 -0.3953459,0.5175 -0.063809,0.047 -0.1163188,0.095 -0.1166895,0.10664 -3.704e-4,0.0116 0.053956,0.10142 0.1207263,0.19958 0.06677,0.0982 0.1452249,0.23195 0.1743445,0.29731 l 0.052944,0.11884 0.2310741,-0.0975 c 0.2499206,-0.1054 0.4312914,-0.12367 0.6588311,-0.0664 0.1193939,0.0301 0.1243686,0.0359 0.1532987,0.1782 l 0.0299,0.14712 -0.1050344,0.0906 c -0.1639076,0.14132 -0.3334621,0.20379 -0.6075384,0.22384 l -0.2459037,0.018 -0.014142,0.30423 c -0.00778,0.16733 -0.022966,0.32507 -0.033748,0.35053 -0.016301,0.0385 0.023969,0.0571 0.2388555,0.11015 0.2791603,0.069 0.4280719,0.1561 0.5580036,0.32645 l 0.077714,0.10188 -0.05581,0.13528 -0.05581,0.13528 -0.2541839,-10e-4 -0.2541839,-0.001 -0.234166,-0.14808 -0.2341663,-0.14808 -0.087463,0.12712 c -0.048104,0.0699 -0.1528655,0.1915 -0.232802,0.27019 l -0.1453392,0.14306 0.1610599,0.18345 c 0.187121,0.21313 0.2396667,0.32378 0.263906,0.55568 l 0.017576,0.16816 -0.123605,0.078 -0.1236052,0.078 -0.1185364,-0.0629 c -0.186783,-0.0991 -0.3082693,-0.24947 -0.4105615,-0.50823 -0.051142,-0.12937 -0.095197,-0.23522 -0.097898,-0.23522 -0.0027,0 -0.07858,0.0259 -0.1686186,0.0575 -0.090039,0.0317 -0.2421498,0.0657 -0.3380238,0.0758 l -0.1743164,0.0182 0.017552,0.2672 c 0.019182,0.29204 -0.026212,0.47798 -0.1591748,0.65197 -0.058077,0.076 -0.077809,0.0832 -0.2069245,0.0756 z M 4.6843481,293.719 c 0.6771846,-0.33338 0.8083146,-1.24713 0.249555,-1.73897 -0.6533405,-0.57509 -1.6489223,-0.19385 -1.764258,0.67559 -0.021743,0.16391 0.026814,0.4299 0.107462,0.58867 0.1287995,0.25355 0.4232856,0.48861 0.6995897,0.55841 0.1995754,0.0504 0.5097386,0.0137 0.7076513,-0.0837 z"
       id="path1002"
       inkscape:connector-curvature="0" />
  </g>
</svg>
